<svg width="326" height="60" viewBox="0 0 326 60" fill="none" xmlns="http://www.w3.org/2000/svg">
<path d="M36 11.25V37.5H6V11.25H36ZM6 3.75C2.69063 3.75 0 7.11328 0 11.25V37.5C0 41.6367 2.69063 45 6 45H16.9969L15.9938 48.75H9C7.34062 48.75 6 50.4258 6 52.5C6 54.5742 7.34062 56.25 9 56.25H33C34.6594 56.25 36 54.5742 36 52.5C36 50.4258 34.6594 48.75 33 48.75H25.9969L24.9938 45H36C39.3094 45 42 41.6367 42 37.5V11.25C42 7.11328 39.3094 3.75 36 3.75H6ZM49.5 3.75C47.0156 3.75 45 6.26953 45 9.375V50.625C45 53.7305 47.0156 56.25 49.5 56.25H55.5C57.9844 56.25 60 53.7305 60 50.625V9.375C60 6.26953 57.9844 3.75 55.5 3.75H49.5ZM51 11.25H54C54.825 11.25 55.5 12.0938 55.5 13.125C55.5 14.1562 54.825 15 54 15H51C50.175 15 49.5 14.1562 49.5 13.125C49.5 12.0938 50.175 11.25 51 11.25ZM49.5 20.625C49.5 19.5938 50.175 18.75 51 18.75H54C54.825 18.75 55.5 19.5938 55.5 20.625C55.5 21.6562 54.825 22.5 54 22.5H51C50.175 22.5 49.5 21.6562 49.5 20.625ZM52.5 39.375C53.2957 39.375 54.0587 39.7701 54.6213 40.4734C55.1839 41.1766 55.5 42.1304 55.5 43.125C55.5 44.1196 55.1839 45.0734 54.6213 45.7766C54.0587 46.4799 53.2957 46.875 52.5 46.875C51.7043 46.875 50.9413 46.4799 50.3787 45.7766C49.8161 45.0734 49.5 44.1196 49.5 43.125C49.5 42.1304 49.8161 41.1766 50.3787 40.4734C50.9413 39.7701 51.7043 39.375 52.5 39.375Z" fill="#243986"/>
<path d="M98.0469 15.6562C98.1094 15.7812 98.1406 16.2188 98.1406 16.9688C98.1719 17.7188 98.1719 18.625 98.1406 19.6875C98.1406 20.75 98.1094 21.8906 98.0469 23.1094C97.9844 24.2969 97.9062 25.4219 97.8125 26.4844C97.75 27.0781 97.6406 27.9688 97.4844 29.1562C97.3594 30.3438 97.2031 31.6562 97.0156 33.0938C96.8281 34.5312 96.625 36.0156 96.4062 37.5469C96.2188 39.0469 96.0312 40.4375 95.8438 41.7188C95.6562 42.9688 95.4844 44.0156 95.3281 44.8594C95.2031 45.7031 95.1094 46.1562 95.0469 46.2188C94.9219 46.3125 94.7188 46.5469 94.4375 46.9219C94.1562 47.2656 93.8438 47.625 93.5 48C93.1875 48.3438 92.8906 48.625 92.6094 48.8438C92.3281 49.0625 92.1406 49.0938 92.0469 48.9375C91.9844 48.625 91.9531 47.6562 91.9531 46.0312C91.9531 45.3438 91.9531 44.4844 91.9531 43.4531C91.9844 42.3906 92.0156 41.1094 92.0469 39.6094C92.1094 38.1094 92.1875 36.3594 92.2812 34.3594C92.375 32.3594 92.4844 30.0469 92.6094 27.4219C91.9844 29.5469 91.4219 31.4219 90.9219 33.0469C90.4531 34.6719 90.0312 36.0938 89.6562 37.3125C89.3125 38.5 89.0156 39.5156 88.7656 40.3594C88.5156 41.1719 88.2969 41.8438 88.1094 42.375C87.7031 43.625 87.4375 44.3594 87.3125 44.5781C87.1875 44.6094 86.9844 44.5156 86.7031 44.2969C86.4531 44.0781 86.1562 43.7656 85.8125 43.3594C85.5 42.9219 85.1719 42.4062 84.8281 41.8125C84.5156 41.2188 84.25 40.5625 84.0312 39.8438C83.8125 39.1875 83.5312 38.3125 83.1875 37.2188C82.875 36.2812 82.4688 35.0625 81.9688 33.5625C81.4688 32.0312 80.8594 30.125 80.1406 27.8438C80.3281 30.4062 80.4844 32.6562 80.6094 34.5938C80.7344 36.5312 80.8281 38.2188 80.8906 39.6562C80.9844 41.0938 81.0469 42.3125 81.0781 43.3125C81.1406 44.2812 81.1719 45.0938 81.1719 45.75C81.2031 47.25 81.1562 48.1094 81.0312 48.3281C80.7188 48.3281 80.375 48.1875 80 47.9062C79.6562 47.5938 79.3125 47.2344 78.9688 46.8281C78.6562 46.3906 78.375 45.9688 78.125 45.5625C77.9062 45.1562 77.7812 44.8594 77.75 44.6719C77.7188 44.5469 77.625 43.9688 77.4688 42.9375C77.3125 41.9062 77.125 40.5938 76.9062 39C76.7188 37.375 76.5 35.5625 76.25 33.5625C76.0312 31.5312 75.8125 29.4688 75.5938 27.375C75.4062 25.2812 75.25 23.25 75.125 21.2812C75 19.2812 74.9375 17.5 74.9375 15.9375C74.9375 15.6875 75.25 15.3594 75.875 14.9531C76.5 14.5156 77.2031 14.1094 77.9844 13.7344C78.7969 13.3281 79.5469 12.9844 80.2344 12.7031C80.9219 12.3906 81.3438 12.2344 81.5 12.2344C81.625 12.2344 81.75 12.5937 81.875 13.3125C82.0312 14.0313 82.2031 14.9375 82.3906 16.0312C82.5781 17.125 82.7812 18.3438 83 19.6875C83.2188 21.0312 83.4688 22.3125 83.75 23.5312C83.9688 24.7812 84.2344 26.0781 84.5469 27.4219C84.7969 28.5781 85.0781 29.8594 85.3906 31.2656C85.7344 32.6406 86.1094 33.9844 86.5156 35.2969C86.9531 33.3906 87.3438 31.6719 87.6875 30.1406C88.0625 28.5781 88.3906 27.25 88.6719 26.1562C89.0156 24.875 89.3125 23.7344 89.5625 22.7344C90.125 20.2969 90.6719 18.375 91.2031 16.9688C91.7656 15.5625 92.125 14.7344 92.2812 14.4844C92.375 14.3594 92.7031 14.3281 93.2656 14.3906C93.8594 14.4531 94.5 14.5625 95.1875 14.7188C95.875 14.8437 96.5 15 97.0625 15.1875C97.6562 15.375 97.9844 15.5313 98.0469 15.6562ZM110.891 22.9219C110.953 23.0156 111.047 23.4531 111.172 24.2344C111.297 25.0156 111.422 25.9844 111.547 27.1406C111.703 28.2969 111.844 29.5469 111.969 30.8906C112.125 32.2344 112.266 33.5156 112.391 34.7344C112.547 35.9531 112.672 37.0469 112.766 38.0156C112.859 38.9844 112.938 39.6406 113 39.9844C113.094 40.5469 113.203 41.1719 113.328 41.8594C113.453 42.5156 113.562 43.1562 113.656 43.7812C113.75 44.375 113.812 44.8906 113.844 45.3281C113.906 45.7656 113.891 46.0312 113.797 46.125C113.734 46.2188 113.484 46.25 113.047 46.2188C112.609 46.1562 112.125 46.0625 111.594 45.9375C111.094 45.7812 110.609 45.6094 110.141 45.4219C109.703 45.2031 109.422 45 109.297 44.8125C109.172 44.6562 109.047 44.4219 108.922 44.1094C108.828 43.7969 108.703 43.25 108.547 42.4688C108.203 42.9375 107.828 43.4375 107.422 43.9688C107.047 44.4688 106.672 44.9375 106.297 45.375C105.922 45.7812 105.578 46.1094 105.266 46.3594C104.953 46.6094 104.719 46.7344 104.562 46.7344C104.312 46.7344 103.938 46.4844 103.438 45.9844C102.938 45.4531 102.438 44.8594 101.938 44.2031C101.438 43.5469 100.984 42.9219 100.578 42.3281C100.172 41.7344 99.9531 41.3438 99.9219 41.1562C99.8594 40.9688 99.8281 40.4531 99.8281 39.6094C99.8594 38.7656 99.8906 37.8281 99.9219 36.7969C99.9844 35.7344 100.047 34.6875 100.109 33.6562C100.172 32.5938 100.234 31.75 100.297 31.125C100.359 30.5 100.422 29.8125 100.484 29.0625C100.578 28.2812 100.672 27.5625 100.766 26.9062C100.859 26.2188 100.938 25.625 101 25.125C101.094 24.625 101.172 24.3281 101.234 24.2344C101.297 24.1406 101.469 24.0938 101.75 24.0938C102.062 24.0625 102.375 24.0781 102.688 24.1406C103.031 24.1719 103.344 24.25 103.625 24.375C103.906 24.4688 104.094 24.5938 104.188 24.75C104.25 24.875 104.281 25.2812 104.281 25.9688C104.312 26.625 104.328 27.4375 104.328 28.4062C104.328 29.3438 104.328 30.375 104.328 31.5C104.328 32.5938 104.312 33.625 104.281 34.5938C104.281 35.5312 104.266 36.3438 104.234 37.0312C104.234 37.6875 104.234 38.0781 104.234 38.2031C104.234 38.4531 104.375 38.9375 104.656 39.6562C104.969 40.375 105.281 41.0625 105.594 41.7188L108.031 38.8125C108 38.25 107.969 37.5312 107.938 36.6562C107.938 35.7812 107.922 34.8594 107.891 33.8906C107.859 32.9219 107.828 31.9375 107.797 30.9375C107.766 29.9375 107.75 29.0312 107.75 28.2188C107.75 27.4062 107.75 26.7344 107.75 26.2031C107.75 25.6719 107.766 25.3594 107.797 25.2656C107.891 25.0781 108.078 24.8281 108.359 24.5156C108.641 24.2031 108.953 23.9062 109.297 23.625C109.641 23.3438 109.953 23.125 110.234 22.9688C110.547 22.8125 110.766 22.7969 110.891 22.9219ZM129.031 28.3594C129.031 28.8594 128.969 29.5781 128.844 30.5156C128.75 31.4531 128.609 32.4844 128.422 33.6094C128.234 34.7031 128.031 35.8438 127.812 37.0312C127.625 38.1875 127.422 39.25 127.203 40.2188C127.016 41.1875 126.844 42 126.688 42.6562C126.562 43.3125 126.484 43.6719 126.453 43.7344C126.391 43.8281 126.219 43.8906 125.938 43.9219C125.688 43.9219 125.391 43.8906 125.047 43.8281C124.734 43.7656 124.438 43.6719 124.156 43.5469C123.906 43.4219 123.75 43.2656 123.688 43.0781C123.656 42.9531 123.641 42.5156 123.641 41.7656C123.672 41.0156 123.703 40.125 123.734 39.0938C123.797 38.0312 123.859 36.9062 123.922 35.7188C123.984 34.5 124.047 33.375 124.109 32.3438C124.203 31.2812 124.266 30.375 124.297 29.625C124.359 28.875 124.391 28.4219 124.391 28.2656C124.391 27.7031 124.328 27.1719 124.203 26.6719C124.109 26.1406 123.984 25.6875 123.828 25.3125C123.672 24.9375 123.484 24.6562 123.266 24.4688C123.078 24.25 122.906 24.1719 122.75 24.2344C122.344 24.2969 122 24.4062 121.719 24.5625C121.438 24.6875 121.203 24.8281 121.016 24.9844C120.797 25.1719 120.625 25.3906 120.5 25.6406C120.469 25.7031 120.406 25.8906 120.312 26.2031C120.25 26.5156 120.219 26.875 120.219 27.2812C120.219 27.4062 120.219 27.8594 120.219 28.6406C120.219 29.3906 120.203 30.2969 120.172 31.3594C120.172 32.4219 120.156 33.5781 120.125 34.8281C120.125 36.0469 120.109 37.1875 120.078 38.25C120.078 39.2812 120.062 40.1719 120.031 40.9219C120 41.6719 119.969 42.0938 119.938 42.1875C119.875 42.375 119.719 42.6406 119.469 42.9844C119.219 43.2969 118.938 43.5938 118.625 43.875C118.312 44.1562 118.016 44.375 117.734 44.5312C117.453 44.6562 117.266 44.625 117.172 44.4375C117.078 44.3438 116.984 43.8906 116.891 43.0781C116.797 42.2344 116.688 41.2188 116.562 40.0312C116.469 38.8125 116.359 37.5 116.234 36.0938C116.109 34.6562 116 33.2812 115.906 31.9688C115.812 30.6562 115.734 29.4688 115.672 28.4062C115.609 27.3438 115.562 26.5781 115.531 26.1094C115.5 25.4531 115.469 24.7188 115.438 23.9062C115.406 23.0625 115.375 22.2812 115.344 21.5625C115.344 20.8125 115.344 20.1719 115.344 19.6406C115.375 19.0781 115.438 18.7344 115.531 18.6094C115.594 18.4844 115.797 18.4531 116.141 18.5156C116.516 18.5781 116.906 18.7031 117.312 18.8906C117.75 19.0469 118.156 19.25 118.531 19.5C118.906 19.7188 119.156 19.9375 119.281 20.1562C119.344 20.3438 119.422 20.5625 119.516 20.8125C119.609 21.0312 119.688 21.4062 119.75 21.9375C120.281 21.625 120.859 21.3438 121.484 21.0938C122.109 20.8125 122.719 20.6094 123.312 20.4844C123.938 20.3281 124.531 20.2812 125.094 20.3438C125.656 20.375 126.156 20.5312 126.594 20.8125C126.875 21.0312 127.156 21.4062 127.438 21.9375C127.75 22.4688 128.016 23.0938 128.234 23.8125C128.484 24.5312 128.672 25.2969 128.797 26.1094C128.953 26.8906 129.031 27.6406 129.031 28.3594ZM144.922 16.9688C145.016 17.7188 145.047 19.2188 145.016 21.4688C145.016 22.4375 144.984 23.6094 144.922 24.9844C144.891 26.3594 144.828 28.0156 144.734 29.9531C144.641 31.8594 144.516 34.0781 144.359 36.6094C144.234 39.1094 144.062 41.9531 143.844 45.1406C143.781 45.4531 143.641 45.7969 143.422 46.1719C143.234 46.5469 143.016 46.8906 142.766 47.2031C142.516 47.5156 142.25 47.7812 141.969 48C141.688 48.1875 141.438 48.25 141.219 48.1875C141.156 48.1562 141.078 47.9062 140.984 47.4375C140.922 46.9688 140.859 46.3125 140.797 45.4688C139.391 46.0938 138.062 46.5156 136.812 46.7344C135.562 46.9531 134.547 46.8125 133.766 46.3125C133.453 46.125 133.141 45.7969 132.828 45.3281C132.547 44.8281 132.281 44.25 132.031 43.5938C131.781 42.9375 131.578 42.25 131.422 41.5312C131.266 40.7812 131.188 40.0781 131.188 39.4219C131.188 38.9531 131.219 38.3281 131.281 37.5469C131.344 36.7656 131.422 35.9219 131.516 35.0156C131.609 34.0781 131.719 33.1406 131.844 32.2031C131.969 31.2344 132.094 30.3438 132.219 29.5312C132.344 28.7188 132.453 28.0312 132.547 27.4688C132.641 26.9062 132.719 26.5625 132.781 26.4375C132.844 26.0625 132.953 25.75 133.109 25.5C133.297 25.25 133.453 25.0625 133.578 24.9375C133.891 24.6875 134.344 24.5 134.938 24.375C135.562 24.25 136.203 24.1719 136.859 24.1406C137.547 24.1094 138.188 24.125 138.781 24.1875C139.375 24.2188 139.812 24.2812 140.094 24.375H140.188C140.125 20.5 140.125 17.5156 140.188 15.4219C140.25 13.3281 140.375 12.2031 140.562 12.0469C140.688 11.9531 140.969 12.0312 141.406 12.2812C141.844 12.5313 142.297 12.8906 142.766 13.3594C143.266 13.8281 143.719 14.3906 144.125 15.0469C144.562 15.6719 144.828 16.3125 144.922 16.9688ZM137.797 43.2188C138.234 43.125 138.625 43.0156 138.969 42.8906C139.344 42.7344 139.656 42.5938 139.906 42.4688C140.188 42.3438 140.422 42.1875 140.609 42C140.578 41.1875 140.547 40.2812 140.516 39.2812C140.484 38.25 140.453 37.1875 140.422 36.0938C140.391 35 140.359 33.8906 140.328 32.7656C140.297 31.6094 140.266 30.5 140.234 29.4375C140.234 29.0938 140.172 28.7969 140.047 28.5469C139.953 28.2969 139.828 28.0938 139.672 27.9375C139.578 27.875 139.391 27.7969 139.109 27.7031C138.828 27.5781 138.5 27.4844 138.125 27.4219C137.781 27.3281 137.438 27.2812 137.094 27.2812C136.781 27.2812 136.562 27.3438 136.438 27.4688C136.375 27.5 136.312 27.8125 136.25 28.4062C136.219 28.9688 136.172 29.6875 136.109 30.5625C136.078 31.4062 136.031 32.3281 135.969 33.3281C135.938 34.3281 135.906 35.2656 135.875 36.1406C135.844 37.0156 135.812 37.7656 135.781 38.3906C135.75 39.0156 135.734 39.3594 135.734 39.4219C135.734 39.9531 135.797 40.4531 135.922 40.9219C136.078 41.3906 136.266 41.8125 136.484 42.1875C136.703 42.5312 136.938 42.8125 137.188 43.0312C137.438 43.2188 137.641 43.2812 137.797 43.2188ZM157.672 22.3594C157.891 22.5469 158.094 22.9062 158.281 23.4375C158.5 23.9688 158.688 24.6094 158.844 25.3594C159 26.1094 159.141 26.9219 159.266 27.7969C159.391 28.6719 159.5 29.5312 159.594 30.375C159.688 31.2188 159.75 32.0156 159.781 32.7656C159.844 33.4844 159.891 34.0781 159.922 34.5469C159.953 35.1094 159.969 35.7031 159.969 36.3281C160 36.9219 160 37.5 159.969 38.0625C159.969 38.5938 159.938 39.0781 159.875 39.5156C159.844 39.9531 159.781 40.2812 159.688 40.5C159.5 40.9688 159.172 41.2969 158.703 41.4844C158.266 41.6406 157.766 41.75 157.203 41.8125C156.922 41.8438 156.438 41.8594 155.75 41.8594C155.094 41.8281 154.375 41.7969 153.594 41.7656C152.844 41.7031 152.125 41.6406 151.438 41.5781C150.75 41.5156 150.234 41.4531 149.891 41.3906C149.203 41.2344 148.703 41.0312 148.391 40.7812C148.109 40.5312 147.828 40.1719 147.547 39.7031C147.453 39.5156 147.375 39.0469 147.312 38.2969C147.25 37.5156 147.203 36.5938 147.172 35.5312C147.172 34.4375 147.188 33.2656 147.219 32.0156C147.25 30.7656 147.297 29.5781 147.359 28.4531C147.453 27.3281 147.547 26.3438 147.641 25.5C147.766 24.6562 147.922 24.0938 148.109 23.8125C148.422 23.375 148.953 22.9688 149.703 22.5938C150.484 22.2188 151.188 21.9219 151.812 21.7031C152.125 21.6094 152.531 21.5469 153.031 21.5156C153.562 21.4531 154.109 21.4531 154.672 21.5156C155.266 21.5469 155.828 21.6406 156.359 21.7969C156.891 21.9219 157.328 22.1094 157.672 22.3594ZM155.047 36.8906C155.109 36.7656 155.172 36.3906 155.234 35.7656C155.328 35.1094 155.391 34.3281 155.422 33.4219C155.484 32.5156 155.516 31.5469 155.516 30.5156C155.547 29.4844 155.562 28.5312 155.562 27.6562C155.562 26.7812 155.531 26.0469 155.469 25.4531C155.406 24.8281 155.328 24.4688 155.234 24.375C155.078 24.25 154.844 24.2031 154.531 24.2344C154.25 24.2344 153.953 24.2812 153.641 24.375C153.328 24.4375 153.047 24.5312 152.797 24.6562C152.547 24.75 152.375 24.8438 152.281 24.9375C151.875 25.2812 151.656 25.8438 151.625 26.625C151.625 26.8438 151.594 27.4688 151.531 28.5C151.5 29.5 151.484 30.5938 151.484 31.7812C151.484 32.9375 151.5 34.0156 151.531 35.0156C151.594 36.0156 151.703 36.625 151.859 36.8438C152.016 37.0625 152.234 37.2344 152.516 37.3594C152.828 37.4531 153.141 37.5 153.453 37.5C153.797 37.5 154.109 37.4531 154.391 37.3594C154.703 37.2344 154.922 37.0781 155.047 36.8906ZM176.422 27.8438C176.484 28 176.516 28.5 176.516 29.3438C176.547 30.1562 176.547 31.1562 176.516 32.3438C176.516 33.5 176.484 34.75 176.422 36.0938C176.359 37.4062 176.281 38.6562 176.188 39.8438C176.125 41 176.047 42 175.953 42.8438C175.859 43.6562 175.766 44.1406 175.672 44.2969C175.391 44.7344 174.969 45.0156 174.406 45.1406C173.844 45.2344 173.438 45.25 173.188 45.1875C173.062 45.1875 172.922 44.8281 172.766 44.1094C172.641 43.3906 172.516 42.4844 172.391 41.3906C172.266 40.2969 172.156 39.1094 172.062 37.8281C171.969 36.5469 171.891 35.3281 171.828 34.1719C171.766 32.9844 171.734 31.9531 171.734 31.0781C171.734 30.2031 171.766 29.6406 171.828 29.3906C171.922 28.9844 172.188 28.625 172.625 28.3125C173.094 28 173.578 27.7656 174.078 27.6094C174.609 27.4531 175.094 27.3906 175.531 27.4219C176 27.4219 176.297 27.5625 176.422 27.8438ZM176.656 20.25C176.781 20.5 176.828 20.8438 176.797 21.2812C176.797 21.7188 176.75 22.1719 176.656 22.6406C176.562 23.1094 176.438 23.5625 176.281 24C176.125 24.4375 175.969 24.7812 175.812 25.0312C175.5 25.4688 175.031 25.75 174.406 25.875C173.812 25.9688 173.375 25.9844 173.094 25.9219C172.875 25.8906 172.656 25.75 172.438 25.5C172.219 25.2188 172.031 24.8906 171.875 24.5156C171.719 24.1094 171.609 23.6719 171.547 23.2031C171.484 22.7344 171.5 22.2969 171.594 21.8906C171.688 21.4844 171.984 21.125 172.484 20.8125C172.984 20.4688 173.516 20.2188 174.078 20.0625C174.641 19.875 175.172 19.7969 175.672 19.8281C176.172 19.8281 176.5 19.9688 176.656 20.25ZM193.391 28.3594C193.391 28.8594 193.328 29.5781 193.203 30.5156C193.109 31.4531 192.969 32.4844 192.781 33.6094C192.594 34.7031 192.391 35.8438 192.172 37.0312C191.984 38.1875 191.781 39.25 191.562 40.2188C191.375 41.1875 191.203 42 191.047 42.6562C190.922 43.3125 190.844 43.6719 190.812 43.7344C190.75 43.8281 190.578 43.8906 190.297 43.9219C190.047 43.9219 189.75 43.8906 189.406 43.8281C189.094 43.7656 188.797 43.6719 188.516 43.5469C188.266 43.4219 188.109 43.2656 188.047 43.0781C188.016 42.9531 188 42.5156 188 41.7656C188.031 41.0156 188.062 40.125 188.094 39.0938C188.156 38.0312 188.219 36.9062 188.281 35.7188C188.344 34.5 188.406 33.375 188.469 32.3438C188.562 31.2812 188.625 30.375 188.656 29.625C188.719 28.875 188.75 28.4219 188.75 28.2656C188.75 27.7031 188.688 27.1719 188.562 26.6719C188.469 26.1406 188.344 25.6875 188.188 25.3125C188.031 24.9375 187.844 24.6562 187.625 24.4688C187.438 24.25 187.266 24.1719 187.109 24.2344C186.703 24.2969 186.359 24.4062 186.078 24.5625C185.797 24.6875 185.562 24.8281 185.375 24.9844C185.156 25.1719 184.984 25.3906 184.859 25.6406C184.828 25.7031 184.766 25.8906 184.672 26.2031C184.609 26.5156 184.578 26.875 184.578 27.2812C184.578 27.4062 184.578 27.8594 184.578 28.6406C184.578 29.3906 184.562 30.2969 184.531 31.3594C184.531 32.4219 184.516 33.5781 184.484 34.8281C184.484 36.0469 184.469 37.1875 184.438 38.25C184.438 39.2812 184.422 40.1719 184.391 40.9219C184.359 41.6719 184.328 42.0938 184.297 42.1875C184.234 42.375 184.078 42.6406 183.828 42.9844C183.578 43.2969 183.297 43.5938 182.984 43.875C182.672 44.1562 182.375 44.375 182.094 44.5312C181.812 44.6562 181.625 44.625 181.531 44.4375C181.438 44.3438 181.344 43.8906 181.25 43.0781C181.156 42.2344 181.047 41.2188 180.922 40.0312C180.828 38.8125 180.719 37.5 180.594 36.0938C180.469 34.6562 180.359 33.2812 180.266 31.9688C180.172 30.6562 180.094 29.4688 180.031 28.4062C179.969 27.3438 179.922 26.5781 179.891 26.1094C179.859 25.4531 179.828 24.7188 179.797 23.9062C179.766 23.0625 179.734 22.2812 179.703 21.5625C179.703 20.8125 179.703 20.1719 179.703 19.6406C179.734 19.0781 179.797 18.7344 179.891 18.6094C179.953 18.4844 180.156 18.4531 180.5 18.5156C180.875 18.5781 181.266 18.7031 181.672 18.8906C182.109 19.0469 182.516 19.25 182.891 19.5C183.266 19.7188 183.516 19.9375 183.641 20.1562C183.703 20.3438 183.781 20.5625 183.875 20.8125C183.969 21.0312 184.047 21.4062 184.109 21.9375C184.641 21.625 185.219 21.3438 185.844 21.0938C186.469 20.8125 187.078 20.6094 187.672 20.4844C188.297 20.3281 188.891 20.2812 189.453 20.3438C190.016 20.375 190.516 20.5312 190.953 20.8125C191.234 21.0312 191.516 21.4062 191.797 21.9375C192.109 22.4688 192.375 23.0938 192.594 23.8125C192.844 24.5312 193.031 25.2969 193.156 26.1094C193.312 26.8906 193.391 27.6406 193.391 28.3594ZM207.688 16.7812C207.844 17.125 207.984 17.5469 208.109 18.0469C208.234 18.5469 208.312 19.0469 208.344 19.5469C208.406 20.0156 208.422 20.4219 208.391 20.7656C208.359 21.1094 208.25 21.2969 208.062 21.3281C207.875 21.3281 207.484 21.1406 206.891 20.7656C206.297 20.3594 205.656 19.9688 204.969 19.5938C204.281 19.1875 203.641 18.875 203.047 18.6562C202.453 18.4062 202.094 18.4531 201.969 18.7969C201.875 19.0469 201.812 19.4688 201.781 20.0625C201.75 20.6562 201.719 21.3906 201.688 22.2656C201.688 23.1094 201.688 24.0781 201.688 25.1719C201.719 26.2344 201.75 27.3594 201.781 28.5469C202.719 28.4531 203.547 28.3906 204.266 28.3594C205.016 28.3281 205.5 28.3438 205.719 28.4062C206 28.5 206.219 28.75 206.375 29.1562C206.562 29.5312 206.672 29.9531 206.703 30.4219C206.766 30.8906 206.75 31.3281 206.656 31.7344C206.594 32.1406 206.453 32.4062 206.234 32.5312C206.078 32.625 205.578 32.6875 204.734 32.7188C203.922 32.75 202.984 32.75 201.922 32.7188C201.984 34.3125 202.047 35.8906 202.109 37.4531C202.203 38.9844 202.281 40.3906 202.344 41.6719C202.406 42.9531 202.453 44.0625 202.484 45C202.547 45.9062 202.578 46.5469 202.578 46.9219C202.578 47.3906 202.438 47.6094 202.156 47.5781C201.906 47.5156 201.594 47.3125 201.219 46.9688C200.844 46.5938 200.438 46.125 200 45.5625C199.594 45 199.25 44.4375 198.969 43.875C198.812 43.5938 198.672 43.0938 198.547 42.375C198.422 41.6562 198.297 40.7969 198.172 39.7969C198.047 38.7656 197.922 37.625 197.797 36.375C197.672 35.125 197.562 33.8281 197.469 32.4844C196.844 32.4219 196.297 32.3594 195.828 32.2969C195.391 32.2344 195.125 32.1719 195.031 32.1094C194.875 31.9844 194.766 31.8281 194.703 31.6406C194.672 31.4219 194.641 31.2031 194.609 30.9844C194.609 30.7656 194.609 30.5625 194.609 30.375C194.641 30.1562 194.672 29.9844 194.703 29.8594C194.766 29.7656 195.016 29.6562 195.453 29.5312C195.922 29.4062 196.516 29.2812 197.234 29.1562C197.141 27.9688 197.062 26.8125 197 25.6875C196.969 24.5625 196.938 23.5312 196.906 22.5938C196.875 21.625 196.844 20.7969 196.812 20.1094C196.812 19.3906 196.828 18.8438 196.859 18.4688C196.859 18.1875 197.031 17.7969 197.375 17.2969C197.75 16.7656 198.172 16.2344 198.641 15.7031C199.141 15.1719 199.641 14.6875 200.141 14.25C200.672 13.8125 201.094 13.5156 201.406 13.3594C202.125 13.0156 202.828 12.9375 203.516 13.125C204.203 13.3125 204.828 13.6406 205.391 14.1094C205.953 14.5469 206.438 15.0312 206.844 15.5625C207.25 16.0625 207.531 16.4688 207.688 16.7812ZM219.078 22.3594C219.297 22.5469 219.5 22.9062 219.688 23.4375C219.906 23.9688 220.094 24.6094 220.25 25.3594C220.406 26.1094 220.547 26.9219 220.672 27.7969C220.797 28.6719 220.906 29.5312 221 30.375C221.094 31.2188 221.156 32.0156 221.188 32.7656C221.25 33.4844 221.297 34.0781 221.328 34.5469C221.359 35.1094 221.375 35.7031 221.375 36.3281C221.406 36.9219 221.406 37.5 221.375 38.0625C221.375 38.5938 221.344 39.0781 221.281 39.5156C221.25 39.9531 221.188 40.2812 221.094 40.5C220.906 40.9688 220.578 41.2969 220.109 41.4844C219.672 41.6406 219.172 41.75 218.609 41.8125C218.328 41.8438 217.844 41.8594 217.156 41.8594C216.5 41.8281 215.781 41.7969 215 41.7656C214.25 41.7031 213.531 41.6406 212.844 41.5781C212.156 41.5156 211.641 41.4531 211.297 41.3906C210.609 41.2344 210.109 41.0312 209.797 40.7812C209.516 40.5312 209.234 40.1719 208.953 39.7031C208.859 39.5156 208.781 39.0469 208.719 38.2969C208.656 37.5156 208.609 36.5938 208.578 35.5312C208.578 34.4375 208.594 33.2656 208.625 32.0156C208.656 30.7656 208.703 29.5781 208.766 28.4531C208.859 27.3281 208.953 26.3438 209.047 25.5C209.172 24.6562 209.328 24.0938 209.516 23.8125C209.828 23.375 210.359 22.9688 211.109 22.5938C211.891 22.2188 212.594 21.9219 213.219 21.7031C213.531 21.6094 213.938 21.5469 214.438 21.5156C214.969 21.4531 215.516 21.4531 216.078 21.5156C216.672 21.5469 217.234 21.6406 217.766 21.7969C218.297 21.9219 218.734 22.1094 219.078 22.3594ZM216.453 36.8906C216.516 36.7656 216.578 36.3906 216.641 35.7656C216.734 35.1094 216.797 34.3281 216.828 33.4219C216.891 32.5156 216.922 31.5469 216.922 30.5156C216.953 29.4844 216.969 28.5312 216.969 27.6562C216.969 26.7812 216.938 26.0469 216.875 25.4531C216.812 24.8281 216.734 24.4688 216.641 24.375C216.484 24.25 216.25 24.2031 215.938 24.2344C215.656 24.2344 215.359 24.2812 215.047 24.375C214.734 24.4375 214.453 24.5312 214.203 24.6562C213.953 24.75 213.781 24.8438 213.688 24.9375C213.281 25.2812 213.062 25.8438 213.031 26.625C213.031 26.8438 213 27.4688 212.938 28.5C212.906 29.5 212.891 30.5938 212.891 31.7812C212.891 32.9375 212.906 34.0156 212.938 35.0156C213 36.0156 213.109 36.625 213.266 36.8438C213.422 37.0625 213.641 37.2344 213.922 37.3594C214.234 37.4531 214.547 37.5 214.859 37.5C215.203 37.5 215.516 37.4531 215.797 37.3594C216.109 37.2344 216.328 37.0781 216.453 36.8906ZM234.078 22.4531C234.328 22.6094 234.562 22.9219 234.781 23.3906C235.031 23.8281 235.25 24.3438 235.438 24.9375C235.656 25.5 235.828 26.1094 235.953 26.7656C236.109 27.4219 236.234 28.0312 236.328 28.5938C236.453 29.1562 236.531 29.6406 236.562 30.0469C236.594 30.4219 236.594 30.6562 236.562 30.75C236.5 30.875 236.312 31 236 31.125C235.719 31.25 235.297 31.3906 234.734 31.5469C234.172 31.7031 233.391 31.875 232.391 32.0625C232.328 30.3438 232.203 29.0469 232.016 28.1719C231.828 27.2656 231.625 26.625 231.406 26.25C231.156 25.8125 230.891 25.5938 230.609 25.5938C230.328 25.7188 230.078 25.875 229.859 26.0625C229.641 26.2188 229.453 26.3906 229.297 26.5781C229.109 26.7969 228.938 27.0312 228.781 27.2812C228.719 27.375 228.656 27.5938 228.594 27.9375C228.531 28.2812 228.469 28.7969 228.406 29.4844C228.406 29.7031 228.391 30.1562 228.359 30.8438C228.359 31.5312 228.344 32.3281 228.312 33.2344C228.312 34.1406 228.297 35.0938 228.266 36.0938C228.266 37.0938 228.25 38.0312 228.219 38.9062C228.219 39.75 228.203 40.4688 228.172 41.0625C228.172 41.6562 228.156 42 228.125 42.0938C228.062 42.25 227.906 42.4688 227.656 42.75C227.406 43.0312 227.125 43.2969 226.812 43.5469C226.5 43.7656 226.203 43.9531 225.922 44.1094C225.641 44.2344 225.453 44.2188 225.359 44.0625C225.266 43.9688 225.172 43.5625 225.078 42.8438C224.984 42.125 224.875 41.25 224.75 40.2188C224.656 39.1562 224.547 38 224.422 36.75C224.297 35.5 224.188 34.2969 224.094 33.1406C224 31.9844 223.922 30.9531 223.859 30.0469C223.797 29.1094 223.75 28.4375 223.719 28.0312C223.688 27.4375 223.656 26.7812 223.625 26.0625C223.594 25.3438 223.562 24.6719 223.531 24.0469C223.531 23.3906 223.531 22.8281 223.531 22.3594C223.562 21.8594 223.625 21.5625 223.719 21.4688C223.781 21.375 223.984 21.3594 224.328 21.4219C224.703 21.4531 225.094 21.5469 225.5 21.7031C225.938 21.8281 226.344 22 226.719 22.2188C227.094 22.4375 227.344 22.6406 227.469 22.8281C227.562 22.9844 227.656 23.2188 227.75 23.5312C228.344 23.2188 228.906 22.9375 229.438 22.6875C230 22.4062 230.531 22.2031 231.031 22.0781C231.562 21.9531 232.078 21.9219 232.578 21.9844C233.078 22.0156 233.578 22.1719 234.078 22.4531ZM257.141 20.25C257.734 20.75 258.172 21.75 258.453 23.25C258.734 24.7188 258.844 26.3594 258.781 28.1719C258.75 28.7344 258.672 29.5156 258.547 30.5156C258.422 31.4844 258.266 32.5625 258.078 33.75C257.922 34.9062 257.734 36.0938 257.516 37.3125C257.328 38.5312 257.141 39.6562 256.953 40.6875C256.766 41.7188 256.594 42.5938 256.438 43.3125C256.312 44 256.234 44.4062 256.203 44.5312C256.141 44.75 255.969 44.9688 255.688 45.1875C255.406 45.4062 255.109 45.5938 254.797 45.75C254.516 45.875 254.234 45.9688 253.953 46.0312C253.672 46.0625 253.5 46 253.438 45.8438C253.406 45.75 253.406 45.2656 253.438 44.3906C253.469 43.5156 253.516 42.4375 253.578 41.1562C253.641 39.8438 253.703 38.4531 253.766 36.9844C253.859 35.4844 253.938 34.0781 254 32.7656C254.062 31.4531 254.125 30.3438 254.188 29.4375C254.25 28.5 254.281 27.9375 254.281 27.75C254.312 26.7812 254.234 25.9375 254.047 25.2188C253.859 24.4688 253.547 24.0938 253.109 24.0938C252.953 24.0938 252.766 24.1719 252.547 24.3281C252.328 24.4531 252.109 24.6094 251.891 24.7969C251.703 24.9844 251.516 25.1875 251.328 25.4062C251.172 25.625 251.094 25.8281 251.094 26.0156C251.062 26.5781 251.016 27.4062 250.953 28.5C250.922 29.5938 250.875 30.7969 250.812 32.1094C250.781 33.4219 250.734 34.7656 250.672 36.1406C250.641 37.5156 250.594 38.7812 250.531 39.9375C250.5 41.0938 250.469 42.0625 250.438 42.8438C250.406 43.5938 250.375 44.0156 250.344 44.1094C250.281 44.2344 250.078 44.3281 249.734 44.3906C249.422 44.4219 249.062 44.4219 248.656 44.3906C248.25 44.3594 247.875 44.2812 247.531 44.1562C247.219 44.0312 247.031 43.8594 246.969 43.6406C246.906 43.4844 246.859 43.0156 246.828 42.2344C246.797 41.4219 246.75 40.4531 246.688 39.3281C246.656 38.2031 246.625 37 246.594 35.7188C246.562 34.4062 246.531 33.1875 246.5 32.0625C246.469 30.9375 246.438 29.9688 246.406 29.1562C246.406 28.3438 246.406 27.8438 246.406 27.6562C246.406 26.9062 246.344 26.3125 246.219 25.875C246.094 25.4062 245.938 25.0469 245.75 24.7969C245.594 24.5156 245.406 24.3438 245.188 24.2812C244.969 24.1875 244.75 24.1406 244.531 24.1406C244.438 24.1406 244.297 24.2188 244.109 24.375C243.922 24.5 243.734 24.7031 243.547 24.9844C243.359 25.2344 243.203 25.5312 243.078 25.875C242.953 26.1875 242.906 26.5312 242.938 26.9062C242.938 27.0625 242.953 27.6406 242.984 28.6406C243.016 29.6406 243.031 30.8438 243.031 32.25C243.062 33.6562 243.094 35.1719 243.125 36.7969C243.156 38.4219 243.172 39.9375 243.172 41.3438C243.203 42.7188 243.219 43.8906 243.219 44.8594C243.219 45.7969 243.219 46.2969 243.219 46.3594C243.156 46.5156 242.984 46.6094 242.703 46.6406C242.422 46.6406 242.109 46.5781 241.766 46.4531C241.422 46.3281 241.094 46.1562 240.781 45.9375C240.469 45.6875 240.25 45.3906 240.125 45.0469C240.062 44.7969 239.969 44.25 239.844 43.4062C239.719 42.5625 239.578 41.5625 239.422 40.4062C239.266 39.2188 239.109 37.9531 238.953 36.6094C238.797 35.2344 238.641 33.9219 238.484 32.6719C238.328 31.3906 238.188 30.2344 238.062 29.2031C237.969 28.1719 237.891 27.3906 237.828 26.8594C237.734 26.1094 237.625 25.2969 237.5 24.4219C237.406 23.5156 237.312 22.6562 237.219 21.8438C237.156 21 237.109 20.2812 237.078 19.6875C237.047 19.0625 237.078 18.6719 237.172 18.5156C237.234 18.3906 237.453 18.3438 237.828 18.375C238.234 18.4062 238.656 18.5 239.094 18.6562C239.562 18.7812 240 18.9688 240.406 19.2188C240.844 19.4375 241.125 19.6719 241.25 19.9219C241.344 20.1094 241.438 20.3438 241.531 20.625C241.656 20.875 241.781 21.2812 241.906 21.8438C242.438 21.4375 242.984 21.0625 243.547 20.7188C244.109 20.3438 244.672 20.0625 245.234 19.875C245.797 19.6562 246.328 19.5469 246.828 19.5469C247.359 19.5156 247.859 19.6562 248.328 19.9688C248.734 20.2812 249.125 20.8281 249.5 21.6094C251 20.7656 252.438 20.1875 253.812 19.875C255.219 19.5312 256.328 19.6562 257.141 20.25ZM273.594 23.3438C273.781 23.5625 273.953 23.7969 274.109 24.0469C274.266 24.2656 274.406 24.5781 274.531 24.9844C274.656 25.3594 274.75 25.8594 274.812 26.4844C274.906 27.1094 274.953 27.9219 274.953 28.9219C274.953 30.5156 274.906 32.125 274.812 33.75C274.75 35.3438 274.688 36.75 274.625 37.9688C274.594 39.0625 274.562 40.0781 274.531 41.0156C274.5 41.9531 274.469 42.7812 274.438 43.5C274.406 44.1875 274.359 44.7344 274.297 45.1406C274.266 45.5469 274.234 45.7656 274.203 45.7969C274.078 45.8906 273.875 45.8594 273.594 45.7031C273.344 45.5156 273.062 45.2812 272.75 45C272.469 44.7188 272.203 44.4219 271.953 44.1094C271.703 43.7969 271.547 43.5469 271.484 43.3594C271.484 43.2031 271.438 42.75 271.344 42C270.594 42.4375 269.766 42.75 268.859 42.9375C267.953 43.0938 267.047 43.1562 266.141 43.125C265.266 43.0625 264.453 42.8906 263.703 42.6094C262.953 42.3281 262.391 41.9531 262.016 41.4844C261.859 41.2969 261.719 41.0156 261.594 40.6406C261.5 40.2656 261.406 39.8438 261.312 39.375C261.25 38.875 261.188 38.3594 261.125 37.8281C261.062 37.2656 261.016 36.75 260.984 36.2812C260.922 35.0625 261.078 34.0156 261.453 33.1406C261.828 32.2344 262.516 31.5625 263.516 31.125C263.953 30.9375 264.531 30.8438 265.25 30.8438C266 30.8125 266.734 30.8438 267.453 30.9375C268.203 31 268.875 31.0938 269.469 31.2188C270.062 31.3125 270.438 31.3906 270.594 31.4531C270.469 29.8594 270.375 28.4844 270.312 27.3281C270.25 26.1406 270.125 25.375 269.938 25.0312C269.781 24.8125 269.594 24.5938 269.375 24.375C269.188 24.2188 268.938 24.0469 268.625 23.8594C268.312 23.6719 267.938 23.5312 267.5 23.4375C267.156 23.375 266.844 23.5156 266.562 23.8594C266.312 24.1719 266.078 24.7344 265.859 25.5469C265.672 26.3281 265.562 27.5312 265.531 29.1562C264.438 29.1875 263.594 29.1875 263 29.1562C262.438 29.0938 262.016 29.0312 261.734 28.9688C261.391 28.9062 261.188 28.8281 261.125 28.7344C261.062 28.6094 261.094 28.1562 261.219 27.375C261.344 26.5625 261.516 25.6875 261.734 24.75C261.984 23.8125 262.266 22.9219 262.578 22.0781C262.922 21.2344 263.281 20.7031 263.656 20.4844C264.406 20.0469 265.297 19.8906 266.328 20.0156C267.391 20.1406 268.422 20.4062 269.422 20.8125C270.422 21.2188 271.312 21.6719 272.094 22.1719C272.875 22.6719 273.375 23.0625 273.594 23.3438ZM270.688 37.0312C270.688 36.875 270.703 36.6719 270.734 36.4219C270.766 36.1406 270.781 35.8594 270.781 35.5781C270.781 35.2969 270.766 35.0312 270.734 34.7812C270.734 34.5312 270.703 34.3438 270.641 34.2188C270.547 34.0312 270.266 33.875 269.797 33.75C269.359 33.625 268.859 33.5469 268.297 33.5156C267.734 33.4531 267.203 33.4375 266.703 33.4688C266.203 33.4688 265.859 33.5312 265.672 33.6562C265.422 33.8125 265.234 34.0312 265.109 34.3125C265.016 34.5938 264.953 35.0312 264.922 35.625C264.922 35.9062 264.938 36.2031 264.969 36.5156C265 36.8281 265.031 37.1406 265.062 37.4531C265.125 37.7344 265.188 37.9844 265.25 38.2031C265.344 38.4219 265.438 38.5625 265.531 38.625C265.75 38.7812 266.125 38.9219 266.656 39.0469C267.219 39.1406 267.781 39.1719 268.344 39.1406C268.906 39.0781 269.422 38.8906 269.891 38.5781C270.359 38.2656 270.625 37.75 270.688 37.0312ZM273.078 12.8438C272.703 13.3125 272.25 13.8125 271.719 14.3438C271.219 14.875 270.719 15.3906 270.219 15.8906C269.719 16.3594 269.25 16.7812 268.812 17.1562C268.406 17.5 268.094 17.7188 267.875 17.8125C267.531 17.9688 267.141 17.9219 266.703 17.6719C266.266 17.4219 266.031 17.0781 266 16.6406C266 16.5156 266.125 16.2188 266.375 15.75C266.625 15.25 266.922 14.7188 267.266 14.1562C267.609 13.5938 267.953 13.0469 268.297 12.5156C268.641 11.9844 268.906 11.6094 269.094 11.3906C269.312 11.1406 269.453 10.9688 269.516 10.875C269.578 10.7812 269.688 10.7031 269.844 10.6406C270.125 10.4531 270.5 10.3594 270.969 10.3594C271.438 10.3281 271.906 10.375 272.375 10.5C272.844 10.5938 273.234 10.75 273.547 10.9688C273.859 11.1875 273.984 11.4063 273.922 11.625C273.891 11.75 273.781 11.9375 273.594 12.1875C273.406 12.4375 273.234 12.6562 273.078 12.8438ZM287.938 23.9062C287.969 24 287.969 24.2656 287.938 24.7031C287.906 25.1094 287.844 25.5781 287.75 26.1094C287.688 26.6094 287.609 27.0781 287.516 27.5156C287.422 27.9219 287.344 28.1719 287.281 28.2656C286.969 28.2969 286.656 28.3125 286.344 28.3125C286.031 28.2812 285.734 28.2656 285.453 28.2656H284.469C284.438 30.3281 284.391 32.375 284.328 34.4062C284.266 36.4375 284.188 38.2656 284.094 39.8906C284 41.4844 283.891 42.7812 283.766 43.7812C283.672 44.7812 283.578 45.2969 283.484 45.3281C283.266 45.3594 283.016 45.2656 282.734 45.0469C282.453 44.8281 282.172 44.5625 281.891 44.25C281.641 43.9062 281.406 43.5625 281.188 43.2188C281 42.8438 280.891 42.5156 280.859 42.2344C280.703 40.3281 280.562 38.5156 280.438 36.7969C280.312 35.0469 280.219 33.5 280.156 32.1562C280.031 30.5938 279.953 29.1406 279.922 27.7969C279.578 27.7656 279.234 27.7188 278.891 27.6562C278.578 27.5938 278.25 27.5312 277.906 27.4688C277.594 27.4062 277.266 27.3438 276.922 27.2812C276.859 27.2188 276.781 27.0781 276.688 26.8594C276.594 26.6094 276.5 26.3438 276.406 26.0625C276.344 25.7812 276.281 25.5156 276.219 25.2656C276.156 24.9844 276.125 24.7812 276.125 24.6562C276.125 24.5625 276.469 24.4688 277.156 24.375C277.875 24.2812 278.75 24.2031 279.781 24.1406C279.719 22.4844 279.672 21.0469 279.641 19.8281C279.641 18.5781 279.688 17.7344 279.781 17.2969C279.875 16.7031 280.125 16.1406 280.531 15.6094C280.969 15.0469 281.422 14.5625 281.891 14.1562C282.391 13.75 282.844 13.4531 283.25 13.2656C283.688 13.0469 283.969 12.9844 284.094 13.0781C284.188 13.1406 284.266 13.4688 284.328 14.0625C284.391 14.625 284.438 15.3906 284.469 16.3594C284.5 17.3281 284.516 18.4688 284.516 19.7812C284.516 21.0625 284.516 22.4219 284.516 23.8594C285.453 23.7969 286.25 23.7812 286.906 23.8125C287.562 23.8125 287.906 23.8438 287.938 23.9062ZM294.359 27.8438C294.422 28 294.453 28.5 294.453 29.3438C294.484 30.1562 294.484 31.1562 294.453 32.3438C294.453 33.5 294.422 34.75 294.359 36.0938C294.297 37.4062 294.219 38.6562 294.125 39.8438C294.062 41 293.984 42 293.891 42.8438C293.797 43.6562 293.703 44.1406 293.609 44.2969C293.328 44.7344 292.906 45.0156 292.344 45.1406C291.781 45.2344 291.375 45.25 291.125 45.1875C291 45.1875 290.859 44.8281 290.703 44.1094C290.578 43.3906 290.453 42.4844 290.328 41.3906C290.203 40.2969 290.094 39.1094 290 37.8281C289.906 36.5469 289.828 35.3281 289.766 34.1719C289.703 32.9844 289.672 31.9531 289.672 31.0781C289.672 30.2031 289.703 29.6406 289.766 29.3906C289.859 28.9844 290.125 28.625 290.562 28.3125C291.031 28 291.516 27.7656 292.016 27.6094C292.547 27.4531 293.031 27.3906 293.469 27.4219C293.938 27.4219 294.234 27.5625 294.359 27.8438ZM294.594 20.25C294.719 20.5 294.766 20.8438 294.734 21.2812C294.734 21.7188 294.688 22.1719 294.594 22.6406C294.5 23.1094 294.375 23.5625 294.219 24C294.062 24.4375 293.906 24.7812 293.75 25.0312C293.438 25.4688 292.969 25.75 292.344 25.875C291.75 25.9688 291.312 25.9844 291.031 25.9219C290.812 25.8906 290.594 25.75 290.375 25.5C290.156 25.2188 289.969 24.8906 289.812 24.5156C289.656 24.1094 289.547 23.6719 289.484 23.2031C289.422 22.7344 289.438 22.2969 289.531 21.8906C289.625 21.4844 289.922 21.125 290.422 20.8125C290.922 20.4688 291.453 20.2188 292.016 20.0625C292.578 19.875 293.109 19.7969 293.609 19.8281C294.109 19.8281 294.438 19.9688 294.594 20.25ZM305.516 22.3594C305.391 22.2344 305.125 22.1094 304.719 21.9844C304.312 21.8594 304.031 21.9062 303.875 22.125C303.781 22.25 303.625 22.6562 303.406 23.3438C303.188 24.0312 302.953 24.9062 302.703 25.9688C302.484 27.0312 302.281 28.25 302.094 29.625C301.938 31 301.859 32.4219 301.859 33.8906C301.859 34.9531 301.906 35.9688 302 36.9375C302.094 37.875 302.203 38.7031 302.328 39.4219C302.484 40.1406 302.656 40.7188 302.844 41.1562C303.062 41.5938 303.281 41.8281 303.5 41.8594C303.688 41.8594 303.906 41.6406 304.156 41.2031C304.438 40.7656 304.703 40.2656 304.953 39.7031C305.234 39.1094 305.469 38.5625 305.656 38.0625C305.875 37.5312 306.031 37.1875 306.125 37.0312C306.375 36.625 306.703 36.2812 307.109 36C307.516 35.6875 307.859 35.5312 308.141 35.5312C308.297 35.5312 308.406 35.6406 308.469 35.8594C308.562 36.0781 308.625 36.3438 308.656 36.6562C308.719 36.9375 308.75 37.2344 308.75 37.5469C308.75 37.8594 308.75 38.1094 308.75 38.2969C308.75 38.6406 308.688 39.2812 308.562 40.2188C308.438 41.1562 308.25 42.1094 308 43.0781C307.781 44.0469 307.516 44.9062 307.203 45.6562C306.922 46.4062 306.609 46.7656 306.266 46.7344C305.922 46.7031 305.406 46.5469 304.719 46.2656C304.031 45.9844 303.328 45.6562 302.609 45.2812C301.922 44.9062 301.281 44.5312 300.688 44.1562C300.125 43.75 299.781 43.4375 299.656 43.2188C299.531 43 299.344 42.4688 299.094 41.625C298.844 40.75 298.578 39.6875 298.297 38.4375C298.047 37.1875 297.828 35.8125 297.641 34.3125C297.453 32.8125 297.359 31.3125 297.359 29.8125C297.359 28.3125 297.391 26.8281 297.453 25.3594C297.547 23.8906 297.688 22.5781 297.875 21.4219C298.062 20.2656 298.297 19.3281 298.578 18.6094C298.891 17.8906 299.266 17.5156 299.703 17.4844C300.922 17.3594 302.141 17.4688 303.359 17.8125C304.609 18.125 305.719 18.5625 306.688 19.125C307.688 19.6562 308.5 20.2344 309.125 20.8594C309.75 21.4531 310.078 21.9531 310.109 22.3594C310.141 22.7969 310.109 23.4062 310.016 24.1875C309.953 24.9688 309.844 25.7656 309.688 26.5781C309.562 27.3594 309.406 28.0781 309.219 28.7344C309.062 29.3594 308.922 29.7188 308.797 29.8125C308.516 30.0938 308.188 30.3906 307.812 30.7031C307.438 31.0156 307.078 31.0781 306.734 30.8906C306.609 30.8281 306.5 30.5938 306.406 30.1875C306.312 29.75 306.219 29.2188 306.125 28.5938C306.062 27.9688 306 27.2969 305.938 26.5781C305.875 25.8594 305.812 25.2031 305.75 24.6094C305.719 23.9844 305.672 23.4688 305.609 23.0625C305.578 22.625 305.547 22.3906 305.516 22.3594ZM322.297 22.3594C322.516 22.5469 322.719 22.9062 322.906 23.4375C323.125 23.9688 323.312 24.6094 323.469 25.3594C323.625 26.1094 323.766 26.9219 323.891 27.7969C324.016 28.6719 324.125 29.5312 324.219 30.375C324.312 31.2188 324.375 32.0156 324.406 32.7656C324.469 33.4844 324.516 34.0781 324.547 34.5469C324.578 35.1094 324.594 35.7031 324.594 36.3281C324.625 36.9219 324.625 37.5 324.594 38.0625C324.594 38.5938 324.562 39.0781 324.5 39.5156C324.469 39.9531 324.406 40.2812 324.312 40.5C324.125 40.9688 323.797 41.2969 323.328 41.4844C322.891 41.6406 322.391 41.75 321.828 41.8125C321.547 41.8438 321.062 41.8594 320.375 41.8594C319.719 41.8281 319 41.7969 318.219 41.7656C317.469 41.7031 316.75 41.6406 316.062 41.5781C315.375 41.5156 314.859 41.4531 314.516 41.3906C313.828 41.2344 313.328 41.0312 313.016 40.7812C312.734 40.5312 312.453 40.1719 312.172 39.7031C312.078 39.5156 312 39.0469 311.938 38.2969C311.875 37.5156 311.828 36.5938 311.797 35.5312C311.797 34.4375 311.812 33.2656 311.844 32.0156C311.875 30.7656 311.922 29.5781 311.984 28.4531C312.078 27.3281 312.172 26.3438 312.266 25.5C312.391 24.6562 312.547 24.0938 312.734 23.8125C313.047 23.375 313.578 22.9688 314.328 22.5938C315.109 22.2188 315.812 21.9219 316.438 21.7031C316.75 21.6094 317.156 21.5469 317.656 21.5156C318.188 21.4531 318.734 21.4531 319.297 21.5156C319.891 21.5469 320.453 21.6406 320.984 21.7969C321.516 21.9219 321.953 22.1094 322.297 22.3594ZM319.672 36.8906C319.734 36.7656 319.797 36.3906 319.859 35.7656C319.953 35.1094 320.016 34.3281 320.047 33.4219C320.109 32.5156 320.141 31.5469 320.141 30.5156C320.172 29.4844 320.188 28.5312 320.188 27.6562C320.188 26.7812 320.156 26.0469 320.094 25.4531C320.031 24.8281 319.953 24.4688 319.859 24.375C319.703 24.25 319.469 24.2031 319.156 24.2344C318.875 24.2344 318.578 24.2812 318.266 24.375C317.953 24.4375 317.672 24.5312 317.422 24.6562C317.172 24.75 317 24.8438 316.906 24.9375C316.5 25.2812 316.281 25.8438 316.25 26.625C316.25 26.8438 316.219 27.4688 316.156 28.5C316.125 29.5 316.109 30.5938 316.109 31.7812C316.109 32.9375 316.125 34.0156 316.156 35.0156C316.219 36.0156 316.328 36.625 316.484 36.8438C316.641 37.0625 316.859 37.2344 317.141 37.3594C317.453 37.4531 317.766 37.5 318.078 37.5C318.422 37.5 318.734 37.4531 319.016 37.3594C319.328 37.2344 319.547 37.0781 319.672 36.8906Z" fill="#243986"/>
</svg>
