<svg width="25" height="24" viewBox="0 0 25 24" fill="none" xmlns="http://www.w3.org/2000/svg">
<path d="M15.8844 14H15.0967L14.8175 13.73C15.8284 12.554 16.384 11.0527 16.3829 9.5C16.3829 8.21442 16.0028 6.95772 15.2907 5.8888C14.5786 4.81988 13.5664 3.98676 12.3822 3.49479C11.198 3.00282 9.89497 2.87409 8.63784 3.1249C7.3807 3.3757 6.22595 3.99477 5.31961 4.90381C4.41326 5.81285 3.79604 6.97104 3.54598 8.23192C3.29592 9.49279 3.42426 10.7997 3.91477 11.9874C4.40528 13.1752 5.23592 14.1903 6.30167 14.9046C7.36742 15.6188 8.6204 16 9.90216 16C11.5074 16 12.983 15.41 14.1196 14.43L14.3888 14.71V15.5L19.374 20.49L20.8596 19L15.8844 14ZM9.90216 14C7.41955 14 5.41552 11.99 5.41552 9.5C5.41552 7.01 7.41955 5 9.90216 5C12.3848 5 14.3888 7.01 14.3888 9.5C14.3888 11.99 12.3848 14 9.90216 14Z" fill="black"/>
</svg>
